# xmcd CD database file
#
# Track frame offsets:
#	150
#	9431
#	23887
#	40630
#	53643
#	68023
#	82175
#	98351
#	129081
#
# Disc length: 2627 seconds
#
# Revision: 0
# Processed by: cddbd v1.5.1PL0 Copyright (c) Steve Scherf et al.
# Submitted via: CDex 1.50
#
DISCID=5c0a4109
DTITLE=Bachi Da Pietra - Tornare nella terra
DYEAR=2005
DGENRE=Blues
TTITLE0=Primavera del sangue
TTITLE1=Aprile D.C.
TTITLE2=2:40
TTITLE3=Solare
TTITLE4=Verme
TTITLE5=Zolle
TTITLE6=Stella
TTITLE7=Prostituisciti
TTITLE8=Stirpe confusa
EXTD=YEAR: 2005
EXTT0=
EXTT1=
EXTT2=
EXTT3=
EXTT4=
EXTT5=
EXTT6=
EXTT7=
EXTT8=
PLAYORDER=
